<svg id="svg" version="1.1" width="400" height="400" viewBox="0 0 400 400" xmlns="http://www.w3.org/2000/svg" xmlns:xlink="http://www.w3.org/1999/xlink" ><g id="svgg"><path id="path0" d="M114.100 0.300 C 161.345 0.356,238.655 0.356,285.900 0.300 C 333.145 0.244,294.490 0.198,200.000 0.198 C 105.510 0.198,66.855 0.244,114.100 0.300 M399.693 28.400 C 399.693 29.170,399.775 29.485,399.876 29.100 C 399.976 28.715,399.976 28.085,399.876 27.700 C 399.775 27.315,399.693 27.630,399.693 28.400 M0.198 200.200 C 0.198 294.800,0.244 333.440,0.300 286.067 C 0.356 238.694,0.356 161.294,0.300 114.067 C 0.244 66.840,0.198 105.600,0.198 200.200 M191.000 92.645 C 169.190 93.777,150.637 100.592,132.400 114.171 C 119.409 123.844,108.098 138.532,100.442 155.672 C 86.946 185.884,91.350 227.049,110.951 253.912 C 126.651 275.429,148.955 293.735,168.162 300.868 C 247.327 330.270,324.321 261.546,304.351 179.307 C 299.734 160.293,290.787 145.698,272.387 127.161 C 266.112 120.840,264.090 118.929,260.166 115.615 C 242.035 100.301,215.202 91.389,191.000 92.645 M206.801 95.798 C 221.882 97.418,235.541 102.203,248.420 110.377 C 256.335 115.401,256.534 115.776,249.504 112.418 C 222.578 99.559,192.122 98.755,164.800 110.184 C 155.542 114.057,144.925 120.691,137.572 127.200 C 132.909 131.327,131.994 132.262,126.000 139.023 C 121.356 144.261,115.931 152.701,112.212 160.474 C 98.558 189.016,98.789 222.385,112.835 250.562 C 115.450 255.809,115.135 255.749,111.507 250.309 C 92.547 221.880,89.602 182.919,104.174 153.286 C 105.178 151.244,106.000 149.494,106.000 149.399 C 106.000 149.303,106.926 147.644,108.057 145.712 C 128.932 110.074,165.875 91.400,206.801 95.798 M218.554 117.638 C 231.233 119.574,242.021 123.739,253.220 131.020 C 261.956 136.700,274.603 155.606,278.225 168.400 C 278.506 169.390,279.091 171.460,279.526 173.000 C 292.897 220.340,260.581 272.008,212.061 280.868 C 206.828 281.823,205.489 281.965,199.200 282.229 C 175.064 283.244,153.143 275.057,135.295 258.361 C 124.206 247.988,115.555 221.915,116.593 202.000 C 118.599 163.550,142.353 132.938,180.000 120.291 C 190.706 116.695,205.644 115.667,218.554 117.638 M275.581 152.000 C 296.751 179.709,298.985 219.170,281.102 249.519 C 259.101 286.857,213.874 302.725,173.200 287.376 C 163.674 283.781,150.932 275.893,146.000 270.537 C 145.230 269.701,144.960 269.303,145.400 269.653 C 146.250 270.328,150.479 272.811,153.800 274.586 C 191.568 294.765,240.229 284.183,266.021 250.182 C 270.983 243.640,276.963 233.338,278.199 229.200 C 278.363 228.650,278.632 228.020,278.795 227.800 C 279.200 227.256,281.400 220.401,282.197 217.200 C 287.902 194.291,284.306 169.645,272.355 149.744 C 269.139 144.389,270.484 145.329,275.581 152.000 M399.709 372.000 C 399.709 372.990,399.787 373.395,399.882 372.900 C 399.978 372.405,399.978 371.595,399.882 371.100 C 399.787 370.605,399.709 371.010,399.709 372.000 M398.400 378.200 C 398.400 378.530,398.580 378.800,398.800 378.800 C 399.020 378.800,399.200 378.530,399.200 378.200 C 399.200 377.870,399.020 377.600,398.800 377.600 C 398.580 377.600,398.400 377.870,398.400 378.200 M392.629 389.029 C 391.849 389.809,391.830 390.040,392.569 389.757 C 392.882 389.636,393.236 389.282,393.357 388.969 C 393.640 388.230,393.409 388.249,392.629 389.029 M7.596 389.836 C 9.088 391.750,10.561 392.886,10.146 391.802 C 10.019 391.474,9.768 391.296,9.587 391.408 C 9.406 391.520,9.157 391.294,9.033 390.905 C 8.910 390.516,8.402 389.945,7.904 389.635 C 7.044 389.099,7.029 389.109,7.596 389.836 M390.175 391.652 C 389.354 392.526,389.241 392.776,389.800 392.482 C 390.717 391.999,392.153 390.400,391.671 390.400 C 391.494 390.400,390.821 390.963,390.175 391.652 M370.905 399.887 C 371.514 399.979,372.414 399.977,372.905 399.882 C 373.397 399.787,372.900 399.711,371.800 399.714 C 370.700 399.717,370.297 399.795,370.905 399.887 " stroke="none" fill="#ffffff" fill-rule="evenodd"></path><path id="path1" d="M24.700 0.690 C 23.875 0.777,23.200 1.001,23.200 1.187 C 23.200 1.373,22.300 1.649,21.200 1.800 C 20.100 1.951,19.200 2.218,19.200 2.393 C 19.200 2.568,18.570 2.829,17.800 2.974 C 17.030 3.118,16.400 3.389,16.400 3.575 C 16.400 3.761,15.950 4.026,15.400 4.164 C 14.850 4.302,14.400 4.592,14.400 4.808 C 14.400 5.023,14.190 5.200,13.934 5.200 C 13.677 5.200,13.182 5.466,12.834 5.791 C 8.330 9.992,7.411 10.800,7.136 10.800 C 6.960 10.800,6.706 11.237,6.572 11.771 C 6.437 12.305,6.074 12.839,5.764 12.959 C 5.454 13.078,5.200 13.451,5.200 13.787 C 5.200 14.124,5.023 14.400,4.808 14.400 C 4.592 14.400,4.302 14.850,4.164 15.400 C 4.026 15.950,3.767 16.400,3.588 16.400 C 3.410 16.400,3.145 16.940,3.000 17.600 C 2.855 18.260,2.591 18.800,2.414 18.800 C 2.236 18.800,1.963 19.655,1.806 20.700 C 1.650 21.745,1.314 22.728,1.061 22.885 C 0.404 23.292,0.395 377.099,1.051 377.515 C 1.299 377.672,1.630 378.565,1.786 379.500 C 1.942 380.435,2.220 381.200,2.403 381.200 C 2.587 381.200,2.855 381.740,3.000 382.400 C 3.145 383.060,3.415 383.600,3.600 383.600 C 3.785 383.600,4.055 384.142,4.201 384.803 C 4.346 385.465,4.630 385.905,4.833 385.780 C 5.035 385.655,5.200 385.824,5.200 386.157 C 5.200 386.489,5.515 386.944,5.900 387.168 C 6.334 387.421,6.401 387.580,6.075 387.588 C 5.551 387.600,7.926 390.000,8.462 390.000 C 8.618 390.000,8.865 390.374,9.010 390.830 C 9.154 391.287,9.362 391.572,9.470 391.463 C 9.701 391.232,10.770 392.251,11.724 393.613 C 12.096 394.144,12.400 394.349,12.400 394.068 C 12.400 393.788,12.805 393.993,13.300 394.524 C 13.795 395.055,14.650 395.628,15.200 395.798 C 15.750 395.969,16.320 396.295,16.467 396.524 C 16.614 396.753,17.146 397.004,17.650 397.080 C 18.153 397.157,18.663 397.379,18.784 397.573 C 18.904 397.768,19.721 398.059,20.601 398.221 C 21.480 398.383,22.304 398.675,22.431 398.869 C 22.956 399.675,32.871 399.733,196.400 399.879 C 363.822 400.028,377.551 399.947,377.933 398.801 C 378.007 398.580,378.579 398.400,379.205 398.400 C 379.831 398.400,380.589 398.154,380.890 397.853 C 381.191 397.552,381.879 397.168,382.419 396.999 C 382.958 396.830,383.498 396.541,383.617 396.356 C 383.737 396.171,384.207 395.963,384.662 395.894 C 385.117 395.824,385.797 395.460,386.173 395.084 C 386.549 394.708,387.095 394.400,387.386 394.400 C 387.677 394.400,388.018 394.130,388.145 393.800 C 388.271 393.470,388.661 393.200,389.011 393.200 C 389.361 393.200,389.552 393.046,389.436 392.858 C 389.141 392.381,390.983 390.724,391.394 391.096 C 391.578 391.263,391.599 391.175,391.441 390.900 C 391.261 390.587,391.395 390.400,391.800 390.400 C 392.156 390.400,392.343 390.231,392.215 390.024 C 391.978 389.640,393.486 388.000,394.075 388.000 C 394.254 388.000,394.400 387.743,394.400 387.429 C 394.400 387.114,394.708 386.549,395.084 386.173 C 395.460 385.797,395.824 385.117,395.894 384.662 C 395.963 384.207,396.181 383.735,396.378 383.613 C 396.575 383.492,396.860 382.899,397.012 382.296 C 397.163 381.693,397.431 381.200,397.608 381.200 C 397.785 381.200,398.058 380.435,398.214 379.500 C 398.370 378.565,398.660 377.697,398.858 377.571 C 399.901 376.907,399.995 361.665,399.970 198.000 C 399.945 30.757,399.893 23.210,398.774 22.400 C 398.622 22.290,398.370 21.435,398.214 20.500 C 398.058 19.565,397.780 18.800,397.597 18.800 C 397.413 18.800,397.145 18.260,397.000 17.600 C 396.855 16.940,396.590 16.400,396.412 16.400 C 396.233 16.400,395.974 15.950,395.836 15.400 C 395.698 14.850,395.408 14.400,395.192 14.400 C 394.977 14.400,394.800 14.139,394.800 13.820 C 394.800 13.501,394.485 13.056,394.100 12.832 C 393.666 12.579,393.599 12.420,393.925 12.412 C 394.213 12.405,393.853 11.856,393.125 11.190 C 392.396 10.525,391.800 9.760,391.800 9.490 C 391.800 9.221,391.606 9.000,391.369 9.000 C 391.132 9.000,390.353 8.415,389.638 7.700 C 388.923 6.985,388.102 6.400,387.812 6.400 C 387.522 6.400,387.182 6.130,387.055 5.800 C 386.929 5.470,386.549 5.200,386.213 5.200 C 385.876 5.200,385.600 5.023,385.600 4.808 C 385.600 4.592,385.150 4.302,384.600 4.164 C 384.050 4.026,383.600 3.774,383.600 3.603 C 383.600 3.433,383.195 3.162,382.700 3.000 C 382.205 2.839,381.710 2.668,381.600 2.620 C 379.931 1.892,379.018 1.600,378.407 1.600 C 378.000 1.600,377.592 1.375,377.500 1.100 C 377.342 0.627,29.133 0.222,24.700 0.690 M208.679 93.359 C 227.473 96.299,241.098 101.766,255.600 112.187 C 259.029 114.651,259.669 115.160,263.366 118.361 C 265.768 120.441,278.432 133.154,281.535 136.600 C 319.811 179.108,315.208 247.249,271.600 283.653 C 238.270 311.477,191.283 315.586,153.696 293.962 C 138.057 284.965,116.729 263.926,107.304 248.200 C 91.674 222.119,88.272 191.490,97.827 162.872 C 108.759 130.127,137.543 103.295,169.750 95.826 C 183.908 92.543,197.821 91.661,208.679 93.359 M184.200 95.581 C 151.355 99.725,124.724 117.258,108.057 145.712 C 106.926 147.644,106.000 149.303,106.000 149.399 C 106.000 149.494,105.178 151.244,104.174 153.286 C 89.602 182.919,92.547 221.880,111.507 250.309 C 115.135 255.749,115.450 255.809,112.835 250.562 C 98.789 222.385,98.558 189.016,112.212 160.474 C 115.931 152.701,121.356 144.261,126.000 139.023 C 131.994 132.262,132.909 131.327,137.572 127.200 C 148.339 117.670,164.723 108.915,178.000 105.597 C 202.921 99.369,226.988 101.665,249.504 112.418 C 256.534 115.776,256.335 115.401,248.420 110.377 C 229.678 98.482,205.453 92.900,184.200 95.581 M197.800 116.782 C 192.614 117.279,183.785 119.020,180.000 120.291 C 142.353 132.938,118.599 163.550,116.593 202.000 C 115.555 221.915,124.206 247.988,135.295 258.361 C 153.143 275.057,175.064 283.244,199.200 282.229 C 205.489 281.965,206.828 281.823,212.061 280.868 C 260.581 272.008,292.897 220.340,279.526 173.000 C 279.091 171.460,278.506 169.390,278.225 168.400 C 275.430 158.527,267.286 144.824,259.020 136.085 C 247.021 123.399,219.452 114.706,197.800 116.782 M270.417 146.144 C 270.407 146.334,271.280 147.954,272.355 149.744 C 284.306 169.645,287.902 194.291,282.197 217.200 C 281.400 220.401,279.200 227.256,278.795 227.800 C 278.632 228.020,278.363 228.650,278.199 229.200 C 276.963 233.338,270.983 243.640,266.021 250.182 C 240.229 284.183,191.568 294.765,153.800 274.586 C 150.479 272.811,146.250 270.328,145.400 269.653 C 144.960 269.303,145.230 269.701,146.000 270.537 C 160.345 286.114,192.597 296.074,217.000 292.463 C 280.059 283.131,313.190 213.500,280.408 159.200 C 277.108 153.733,270.469 145.059,270.417 146.144 " stroke="none" fill="#000000" fill-rule="evenodd"></path></g></svg>