<svg id="svg" version="1.1" width="1037" height="173" xmlns="http://www.w3.org/2000/svg" xmlns:xlink="http://www.w3.org/1999/xlink" ><g id="svgg"><path id="path0" d="M1.610 1.278 C 0.267 2.708,0.346 10.410,1.718 11.782 L 2.665 12.729 19.076 12.729 C 28.102 12.729,35.487 12.826,35.487 12.946 C 35.487 13.065,33.786 15.191,31.706 17.671 C 24.148 26.684,24.443 28.158,33.809 28.158 L 38.970 28.158 40.298 26.905 C 43.546 23.839,53.249 11.727,53.662 10.222 C 54.390 7.574,53.923 2.498,52.847 1.352 L 51.939 0.386 27.194 0.386 L 2.449 0.386 1.610 1.278 M82.932 1.316 C 68.540 5.736,60.445 17.107,60.389 32.980 C 60.335 48.561,68.442 60.432,82.148 64.839 C 89.279 67.132,90.260 66.496,90.260 59.582 C 90.260 54.093,90.242 54.062,86.358 52.862 C 68.405 47.317,68.383 19.035,86.328 13.492 C 90.246 12.282,90.260 12.257,90.260 6.763 C 90.260 -0.006,89.376 -0.664,82.932 1.316 M96.884 1.354 C 96.137 2.303,96.046 2.889,96.046 6.760 C 96.046 11.871,96.272 12.298,99.518 13.323 C 118.275 19.245,118.275 47.100,99.518 53.022 C 96.252 54.053,96.046 54.453,96.046 59.763 C 96.046 66.634,97.423 67.312,105.449 64.396 C 133.449 54.220,133.062 11.337,104.883 1.721 C 100.283 0.151,97.915 0.042,96.884 1.354 M156.220 1.316 C 141.722 5.769,133.674 17.133,133.661 33.173 C 133.647 49.630,142.483 61.613,157.570 65.595 C 162.666 66.939,163.935 65.765,163.934 59.704 C 163.933 55.017,163.393 54.167,159.571 52.834 C 141.217 46.432,141.725 18.838,160.299 13.328 C 163.193 12.469,163.657 11.764,163.858 7.919 C 164.249 0.480,162.858 -0.723,156.220 1.316 M170.171 1.355 C 169.424 2.304,169.335 2.889,169.335 6.802 C 169.335 11.988,169.457 12.193,173.315 13.477 C 176.604 14.572,179.979 16.776,181.889 19.076 C 185.207 23.072,184.507 22.758,190.079 22.758 C 198.420 22.758,198.905 19.552,191.851 11.053 C 185.935 3.926,172.778 -1.959,170.171 1.355 M210.396 1.406 C 208.753 3.180,209.151 11.340,210.924 12.216 C 211.280 12.392,218.875 12.622,227.801 12.729 L 244.030 12.922 246.303 14.085 C 252.489 17.250,252.831 25.886,246.890 28.917 C 244.282 30.248,241.328 30.472,226.255 30.485 C 210.798 30.498,210.851 30.492,209.899 32.279 C 209.265 33.470,209.265 62.576,209.899 63.767 C 210.743 65.352,211.401 65.549,215.890 65.562 C 219.906 65.573,220.283 65.509,221.290 64.643 L 222.372 63.713 222.486 53.264 L 222.601 42.816 230.394 42.821 L 238.187 42.827 245.103 53.838 C 253.063 66.512,252.032 65.574,258.009 65.574 C 267.614 65.574,267.625 65.146,258.356 51.061 C 254.884 45.783,251.916 41.260,251.761 41.009 C 251.576 40.708,252.409 40.063,254.193 39.126 C 267.688 32.034,267.019 9.978,253.094 2.921 C 248.393 0.539,246.891 0.386,228.271 0.386 L 211.342 0.386 210.396 1.406 M294.696 1.316 C 280.321 5.731,272.210 17.125,272.154 32.980 C 272.100 48.545,280.022 60.191,293.789 64.783 C 301.007 67.190,302.025 66.557,302.025 59.655 C 302.025 54.084,302.014 54.064,298.123 52.862 C 280.138 47.307,280.158 19.035,298.151 13.475 C 302.004 12.284,302.025 12.247,302.025 6.763 C 302.025 -0.006,301.141 -0.664,294.696 1.316 M308.648 1.355 C 307.902 2.303,307.811 2.890,307.811 6.760 C 307.811 11.871,308.037 12.298,311.283 13.323 C 330.075 19.256,330.075 47.089,311.283 53.022 C 308.017 54.053,307.811 54.453,307.811 59.763 C 307.811 66.083,308.720 66.844,314.483 65.351 C 341.871 58.254,346.671 19.122,321.992 4.135 C 316.848 1.012,310.034 -0.408,308.648 1.355 M361.427 1.116 C 350.403 4.122,344.258 13.772,346.943 23.860 C 348.850 31.024,354.738 34.642,371.535 38.971 C 384.242 42.245,386.710 43.586,386.671 47.197 C 386.636 50.560,384.355 52.737,379.933 53.626 C 375.080 54.602,374.928 54.811,374.928 60.467 C 374.928 66.026,375.385 66.583,379.652 66.222 C 392.248 65.157,400.094 57.039,399.548 45.633 C 399.089 36.025,393.524 31.764,375.137 26.938 C 361.316 23.311,359.113 22.232,359.113 19.092 C 359.113 16.206,361.720 13.898,366.284 12.745 C 368.605 12.159,369.211 11.275,369.435 8.146 C 369.964 0.745,368.263 -0.748,361.427 1.116 M375.915 1.292 C 373.543 3.664,374.819 13.104,377.514 13.119 C 380.340 13.134,383.878 16.217,385.079 19.710 C 386.192 22.946,386.708 23.197,391.966 23.059 C 398.355 22.891,399.509 20.718,396.906 13.761 C 393.975 5.926,379.738 -2.531,375.915 1.292 M164.880 29.179 C 164.010 30.118,163.934 30.502,163.934 33.982 C 163.934 40.632,163.651 40.479,176.160 40.600 L 185.877 40.694 184.718 43.109 C 182.540 47.646,175.747 53.230,172.405 53.230 C 172.022 53.230,171.174 53.680,170.521 54.229 L 169.335 55.228 169.347 59.726 C 169.366 66.867,170.975 67.634,179.241 64.438 C 190.810 59.964,198.666 48.984,199.653 35.909 C 200.272 27.710,201.306 28.158,181.780 28.158 L 165.826 28.158 164.880 29.179 M13.761 39.441 C 12.564 40.545,2.381 52.918,0.982 54.966 C -0.587 57.264,-0.392 63.981,1.286 65.424 L 2.357 66.345 27.001 66.345 L 51.645 66.345 52.727 65.414 C 54.297 64.063,54.403 56.624,52.874 54.997 L 51.939 54.002 35.227 54.002 C 26.035 54.002,18.519 53.872,18.524 53.713 C 18.530 53.554,20.526 51.028,22.960 48.101 C 27.836 42.238,28.297 41.105,26.494 39.412 C 25.107 38.109,15.179 38.132,13.761 39.441 M346.384 42.543 C 340.748 45.394,347.886 59.538,357.043 63.664 C 366.439 67.897,369.335 67.030,369.335 59.981 C 369.335 54.895,369.088 54.421,365.914 53.392 C 360.984 51.794,358.335 49.321,357.789 45.805 C 357.300 42.660,356.206 42.042,351.134 42.050 C 348.859 42.053,346.963 42.250,346.384 42.543 " stroke="none" fill="#000000" fill-rule="evenodd"></path></g></svg>