<svg id="svg" version="1.1" width="400" height="154.71311475409837" viewBox="0 0 400 154.71311475409837" xmlns="http://www.w3.org/2000/svg" xmlns:xlink="http://www.w3.org/1999/xlink" ><g id="svgg"><path id="path0" d="M22.167 12.229 C 18.485 13.215,15.964 15.622,14.723 19.333 C 14.428 20.216,14.417 22.471,14.417 80.917 L 14.417 141.583 14.821 142.667 C 16.133 146.179,18.793 148.652,22.157 149.485 L 23.563 149.833 83.523 149.833 L 143.483 149.833 144.832 149.407 C 148.429 148.271,150.984 145.627,151.989 142.001 L 152.333 140.757 152.333 80.833 C 152.333 21.146,152.332 20.905,151.995 19.690 C 150.956 15.940,148.228 13.211,144.479 12.172 C 143.261 11.834,143.070 11.833,83.420 11.841 L 23.583 11.849 22.167 12.229 M85.327 43.839 C 94.245 44.778,100.902 48.211,108.417 55.748 C 115.054 62.404,118.234 67.903,119.753 75.350 C 125.186 101.990,100.763 124.263,74.668 116.467 C 63.249 113.056,51.743 101.780,47.916 90.250 C 39.885 66.053,59.946 41.166,85.327 43.839 M78.833 44.608 C 53.077 47.019,38.776 74.893,51.954 97.000 C 53.578 99.725,53.992 100.099,52.979 97.927 C 45.006 80.820,51.058 61.195,67.217 51.758 C 77.171 45.945,89.667 45.439,100.129 50.427 C 102.782 51.692,102.798 51.590,100.204 49.948 C 93.795 45.892,85.980 43.939,78.833 44.608 M82.000 52.092 C 81.862 52.121,80.813 52.310,79.667 52.511 C 59.302 56.080,48.199 79.195,58.193 97.216 C 60.227 100.883,63.376 103.685,68.156 106.080 C 89.233 116.640,113.826 99.908,111.680 76.469 C 110.780 66.633,105.431 58.283,97.761 54.739 C 93.344 52.698,85.404 51.365,82.000 52.092 M107.667 62.251 C 107.667 62.298,108.073 63.040,108.569 63.899 C 120.046 83.780,106.229 108.908,83.166 110.098 C 76.802 110.426,68.224 108.033,64.418 104.867 C 64.234 104.714,64.308 104.839,64.583 105.146 C 67.667 108.581,74.897 111.969,80.833 112.760 C 105.281 116.018,123.394 90.452,112.147 68.562 C 110.869 66.074,107.667 61.564,107.667 62.251 M174.487 63.321 L 174.000 63.808 174.000 66.167 L 174.000 68.526 174.487 69.013 L 174.974 69.500 183.654 69.500 C 188.428 69.500,192.333 69.562,192.333 69.638 C 192.333 69.713,191.422 70.857,190.308 72.179 C 187.311 75.736,187.134 76.165,188.256 77.149 L 188.845 77.667 191.492 77.667 C 192.948 77.667,194.261 77.620,194.409 77.563 C 194.752 77.432,201.528 69.418,201.893 68.712 C 202.221 68.077,202.287 64.380,201.980 63.781 C 201.470 62.783,202.323 62.841,188.029 62.837 L 174.974 62.833 174.487 63.321 M217.956 63.259 C 203.348 67.267,200.898 88.043,214.119 95.803 C 216.252 97.055,219.606 98.037,220.493 97.669 C 221.511 97.248,221.583 97.032,221.583 94.413 C 221.583 91.685,221.433 91.340,220.094 90.982 C 209.844 88.237,209.612 72.594,219.780 69.751 C 221.488 69.273,221.583 69.088,221.583 66.248 L 221.583 63.855 221.094 63.344 C 220.489 62.713,219.993 62.700,217.956 63.259 M225.073 63.344 L 224.583 63.855 224.583 66.248 C 224.583 69.088,224.678 69.273,226.386 69.751 C 231.046 71.055,233.728 74.883,233.743 80.250 C 233.759 85.616,231.411 89.133,226.726 90.762 C 224.500 91.535,224.403 91.727,224.527 95.084 C 224.632 97.917,225.447 98.313,228.833 97.177 C 244.981 91.759,244.506 67.598,228.167 63.255 C 226.072 62.698,225.681 62.709,225.073 63.344 M256.960 63.246 C 240.606 67.537,240.104 91.973,256.263 97.249 C 259.822 98.411,260.665 97.869,260.665 94.417 C 260.665 91.772,260.531 91.552,258.489 90.829 C 248.682 87.361,248.740 73.002,258.574 69.822 C 260.359 69.244,260.547 68.980,260.637 66.920 C 260.808 63.012,260.193 62.398,256.960 63.246 M264.326 63.047 C 263.597 63.621,263.500 64.000,263.500 66.274 C 263.500 68.930,263.685 69.289,265.298 69.755 C 267.508 70.393,269.231 71.640,271.346 74.131 L 271.943 74.833 274.488 74.833 L 277.033 74.833 277.600 74.267 C 278.549 73.318,277.989 71.681,275.764 68.900 C 272.863 65.275,265.973 61.749,264.326 63.047 M285.351 63.422 C 284.836 64.008,284.833 64.022,284.833 65.928 C 284.833 69.718,284.250 69.499,294.367 69.502 C 302.686 69.504,303.309 69.547,304.593 70.212 C 307.283 71.604,307.791 75.630,305.518 77.543 C 304.118 78.721,304.003 78.734,294.462 78.830 L 285.840 78.917 285.379 79.379 L 284.917 79.841 284.917 88.184 L 284.917 96.527 285.461 97.014 L 286.005 97.500 288.313 97.500 C 291.928 97.500,291.831 97.692,291.832 90.542 L 291.833 85.500 295.980 85.500 L 300.128 85.500 302.439 89.166 C 303.710 91.183,305.322 93.747,306.022 94.866 C 307.770 97.658,307.485 97.500,310.759 97.500 C 314.847 97.500,315.403 96.751,313.480 93.833 C 311.235 90.428,307.388 84.568,307.288 84.399 C 307.220 84.287,307.679 83.961,308.459 83.566 C 315.879 79.808,315.547 68.039,307.913 64.206 C 305.326 62.907,304.612 62.833,294.604 62.833 L 285.868 62.833 285.351 63.422 M330.456 63.259 C 315.853 67.266,313.402 88.046,326.619 95.803 C 328.752 97.055,332.106 98.037,332.993 97.669 C 334.011 97.248,334.083 97.032,334.083 94.413 C 334.083 91.685,333.933 91.340,332.594 90.982 C 322.347 88.238,322.116 72.593,332.280 69.751 C 333.988 69.273,334.083 69.088,334.083 66.248 L 334.083 63.855 333.594 63.344 C 332.989 62.713,332.493 62.700,330.456 63.259 M337.573 63.344 L 337.083 63.855 337.083 66.248 C 337.083 69.088,337.178 69.273,338.886 69.751 C 343.612 71.073,346.263 74.888,346.240 80.333 C 346.218 85.693,343.905 89.133,339.230 90.761 C 337.028 91.528,336.904 91.770,337.027 95.074 C 337.135 98.006,338.299 98.441,342.083 96.967 C 357.607 90.918,356.600 67.527,340.632 63.249 C 338.576 62.698,338.180 62.711,337.573 63.344 M365.750 63.240 C 356.368 65.678,354.454 76.513,362.670 80.668 C 364.824 81.757,365.817 82.079,371.417 83.507 C 377.786 85.131,379.096 85.900,378.968 87.938 C 378.856 89.709,377.646 90.742,375.127 91.216 C 372.860 91.643,372.587 92.085,372.692 95.159 L 372.756 97.033 373.322 97.538 C 373.981 98.127,374.898 98.119,377.457 97.503 C 382.848 96.205,385.892 92.593,385.859 87.535 C 385.822 81.986,382.773 79.514,372.848 76.988 C 365.623 75.149,364.227 74.446,364.371 72.713 C 364.496 71.204,365.736 70.073,367.775 69.608 C 369.491 69.216,369.722 68.901,369.805 66.838 C 369.965 62.847,369.352 62.303,365.750 63.240 M373.175 63.444 C 372.676 64.078,372.624 64.423,372.691 66.679 L 372.750 68.694 373.295 69.181 C 373.594 69.448,374.006 69.667,374.211 69.667 C 375.691 69.667,377.465 71.219,378.117 73.083 C 378.755 74.908,379.006 75.035,381.833 74.967 C 384.657 74.899,385.082 74.601,385.021 72.730 C 384.879 68.401,381.366 64.642,376.236 63.330 C 374.393 62.858,373.613 62.887,373.175 63.444 M261.458 77.847 C 260.297 78.523,260.322 83.370,261.491 83.995 C 261.691 84.102,263.757 84.167,266.989 84.167 C 272.941 84.167,272.529 84.012,271.547 85.880 C 270.204 88.437,267.703 90.365,264.791 91.089 C 263.131 91.502,262.831 97.064,264.435 97.674 C 267.216 98.731,274.106 94.633,276.905 90.258 C 279.514 86.178,280.673 78.818,278.858 77.847 C 278.406 77.605,261.874 77.605,261.458 77.847 M181.555 83.174 C 181.147 83.299,180.259 84.268,177.638 87.449 C 173.226 92.805,173.669 92.019,173.670 94.500 C 173.673 98.332,172.320 97.999,187.917 97.999 C 203.475 97.999,202.160 98.312,202.164 94.614 C 202.169 91.067,202.995 91.342,192.292 91.337 C 186.110 91.334,183.500 91.280,183.500 91.153 C 183.500 91.054,184.048 90.323,184.718 89.528 C 188.539 84.994,188.670 84.735,187.681 83.628 L 187.195 83.084 184.639 83.048 C 183.233 83.029,181.846 83.085,181.555 83.174 M357.917 85.119 C 356.719 85.409,356.422 86.311,356.841 88.387 C 357.857 93.425,361.517 96.753,367.070 97.686 C 369.443 98.085,369.916 97.459,369.808 94.058 C 369.737 91.843,369.530 91.496,368.008 91.055 C 365.396 90.297,364.110 89.120,363.673 87.083 C 363.277 85.241,362.851 84.992,360.141 85.019 C 359.101 85.030,358.100 85.075,357.917 85.119 " stroke="none" fill="#000000" fill-rule="evenodd"></path><path id="path1" d="M0.000 77.333 L 0.000 154.667 200.000 154.667 L 400.000 154.667 400.000 77.333 L 400.000 0.000 200.000 0.000 L 0.000 0.000 0.000 77.333 M144.479 12.172 C 148.228 13.211,150.956 15.940,151.995 19.690 C 152.332 20.905,152.333 21.146,152.333 80.833 L 152.333 140.757 151.989 142.001 C 150.984 145.627,148.429 148.271,144.832 149.407 L 143.483 149.833 83.523 149.833 L 23.563 149.833 22.157 149.485 C 18.793 148.652,16.133 146.179,14.821 142.667 L 14.417 141.583 14.417 80.917 C 14.417 22.471,14.428 20.216,14.723 19.333 C 15.964 15.622,18.485 13.215,22.167 12.229 L 23.583 11.849 83.420 11.841 C 143.070 11.833,143.261 11.834,144.479 12.172 M78.333 43.846 C 60.656 45.171,46.215 60.924,46.172 78.929 C 46.144 90.596,51.197 100.403,61.917 109.490 C 84.663 128.772,119.516 113.544,120.448 83.917 C 120.794 72.924,117.235 64.591,108.417 55.748 C 99.088 46.392,90.372 42.944,78.333 43.846 M84.601 44.674 C 90.300 45.135,95.234 46.803,100.204 49.948 C 102.798 51.590,102.782 51.692,100.129 50.427 C 89.667 45.439,77.171 45.945,67.217 51.758 C 51.058 61.195,45.006 80.820,52.979 97.927 C 53.992 100.099,53.578 99.725,51.954 97.000 C 39.282 75.741,52.540 47.896,76.786 44.847 C 79.788 44.469,81.580 44.430,84.601 44.674 M90.087 52.414 C 99.253 53.967,105.083 58.268,108.851 66.255 C 121.046 92.108,93.694 118.875,68.156 106.080 C 63.376 103.685,60.227 100.883,58.193 97.216 C 48.199 79.195,59.302 56.080,79.667 52.511 C 80.813 52.310,81.862 52.121,82.000 52.092 C 83.142 51.848,87.853 52.036,90.087 52.414 M108.709 63.296 C 124.884 83.317,110.638 112.969,84.833 112.992 C 77.375 112.998,68.569 109.586,64.583 105.146 C 64.308 104.839,64.234 104.714,64.418 104.867 C 68.224 108.033,76.802 110.426,83.166 110.098 C 106.229 108.908,120.046 83.780,108.569 63.899 C 108.073 63.040,107.667 62.298,107.667 62.251 C 107.667 62.049,107.848 62.231,108.709 63.296 M201.439 63.129 C 202.229 63.769,202.531 67.479,201.893 68.712 C 201.528 69.418,194.752 77.432,194.409 77.563 C 194.261 77.620,192.948 77.667,191.492 77.667 L 188.845 77.667 188.256 77.149 C 187.134 76.165,187.311 75.736,190.308 72.179 C 191.422 70.857,192.333 69.713,192.333 69.638 C 192.333 69.562,188.428 69.500,183.654 69.500 L 174.974 69.500 174.487 69.013 L 174.000 68.526 174.000 66.167 L 174.000 63.808 174.487 63.321 L 174.974 62.833 188.029 62.837 C 200.146 62.840,201.109 62.861,201.439 63.129 M221.094 63.344 L 221.583 63.855 221.583 66.248 C 221.583 69.088,221.488 69.273,219.780 69.751 C 209.612 72.594,209.844 88.237,220.094 90.982 C 221.433 91.340,221.583 91.685,221.583 94.413 C 221.583 97.674,221.176 98.125,218.714 97.584 C 205.920 94.776,201.045 78.018,210.111 68.010 C 213.254 64.542,219.641 61.828,221.094 63.344 M228.167 63.255 C 244.506 67.598,244.981 91.759,228.833 97.177 C 225.447 98.313,224.632 97.917,224.527 95.084 C 224.403 91.727,224.500 91.535,226.726 90.762 C 236.448 87.382,236.208 72.499,226.386 69.751 C 224.678 69.273,224.583 69.088,224.583 66.248 L 224.583 63.855 225.073 63.344 C 225.681 62.709,226.072 62.698,228.167 63.255 M259.999 63.306 C 260.580 63.888,260.732 64.748,260.637 66.920 C 260.547 68.980,260.359 69.244,258.574 69.822 C 248.740 73.002,248.682 87.361,258.489 90.829 C 260.531 91.552,260.665 91.772,260.665 94.417 C 260.665 97.869,259.822 98.411,256.263 97.249 C 241.449 92.412,240.133 70.928,254.240 64.228 C 256.941 62.945,259.266 62.573,259.999 63.306 M267.108 63.251 C 271.632 64.491,275.406 67.494,277.499 71.518 C 278.325 73.105,278.340 73.526,277.600 74.267 L 277.033 74.833 274.488 74.833 L 271.943 74.833 271.346 74.131 C 269.231 71.640,267.508 70.393,265.298 69.755 C 263.685 69.289,263.500 68.930,263.500 66.274 C 263.500 62.786,263.971 62.392,267.108 63.251 M304.958 63.184 C 314.881 65.334,317.248 79.114,308.459 83.566 C 307.679 83.961,307.220 84.287,307.288 84.399 C 307.388 84.568,311.235 90.428,313.480 93.833 C 315.403 96.751,314.847 97.500,310.759 97.500 C 307.485 97.500,307.770 97.658,306.022 94.866 C 305.322 93.747,303.710 91.183,302.439 89.166 L 300.128 85.500 295.980 85.500 L 291.833 85.500 291.832 90.542 C 291.831 97.692,291.928 97.500,288.313 97.500 L 286.005 97.500 285.461 97.014 L 284.917 96.527 284.917 88.184 L 284.917 79.841 285.379 79.379 L 285.840 78.917 294.462 78.830 C 304.003 78.734,304.118 78.721,305.518 77.543 C 307.791 75.630,307.283 71.604,304.593 70.212 C 303.309 69.547,302.686 69.504,294.367 69.502 C 284.250 69.499,284.833 69.718,284.833 65.928 C 284.833 64.022,284.836 64.008,285.351 63.422 L 285.868 62.833 294.604 62.833 C 302.859 62.833,303.428 62.853,304.958 63.184 M333.594 63.344 L 334.083 63.855 334.083 66.248 C 334.083 69.088,333.988 69.273,332.280 69.751 C 322.116 72.593,322.347 88.238,332.594 90.982 C 333.933 91.340,334.083 91.685,334.083 94.413 C 334.083 97.674,333.676 98.125,331.214 97.584 C 318.292 94.748,313.516 77.796,322.815 67.775 C 325.862 64.491,332.197 61.887,333.594 63.344 M340.632 63.249 C 356.600 67.527,357.607 90.918,342.083 96.967 C 338.299 98.441,337.135 98.006,337.027 95.074 C 336.904 91.770,337.028 91.528,339.230 90.761 C 348.964 87.372,348.721 72.503,338.886 69.751 C 337.178 69.273,337.083 69.088,337.083 66.248 L 337.083 63.855 337.573 63.344 C 338.180 62.711,338.576 62.698,340.632 63.249 M369.212 63.230 C 369.749 63.727,369.894 64.614,369.805 66.838 C 369.722 68.901,369.491 69.216,367.775 69.608 C 365.736 70.073,364.496 71.204,364.371 72.713 C 364.227 74.446,365.623 75.149,372.848 76.988 C 382.773 79.514,385.822 81.986,385.859 87.535 C 385.892 92.593,382.848 96.205,377.457 97.503 C 374.898 98.119,373.981 98.127,373.322 97.538 L 372.756 97.033 372.692 95.159 C 372.587 92.085,372.860 91.643,375.127 91.216 C 377.646 90.742,378.856 89.709,378.968 87.938 C 379.096 85.900,377.786 85.131,371.417 83.507 C 364.648 81.781,362.940 81.128,360.757 79.430 C 356.258 75.932,356.422 69.512,361.113 65.501 C 363.431 63.519,368.109 62.207,369.212 63.230 M376.236 63.330 C 381.366 64.642,384.879 68.401,385.021 72.730 C 385.082 74.601,384.657 74.899,381.833 74.967 C 379.006 75.035,378.755 74.908,378.117 73.083 C 377.465 71.219,375.691 69.667,374.211 69.667 C 374.006 69.667,373.594 69.448,373.295 69.181 L 372.750 68.694 372.691 66.679 C 372.582 62.982,373.071 62.520,376.236 63.330 M278.858 77.847 C 280.673 78.818,279.514 86.178,276.905 90.258 C 274.106 94.633,267.216 98.731,264.435 97.674 C 262.831 97.064,263.131 91.502,264.791 91.089 C 267.703 90.365,270.204 88.437,271.547 85.880 C 272.529 84.012,272.941 84.167,266.989 84.167 C 263.757 84.167,261.691 84.102,261.491 83.995 C 260.322 83.370,260.297 78.523,261.458 77.847 C 261.874 77.605,278.406 77.605,278.858 77.847 M187.681 83.628 C 188.670 84.735,188.539 84.994,184.718 89.528 C 184.048 90.323,183.500 91.054,183.500 91.153 C 183.500 91.280,186.110 91.334,192.292 91.337 C 202.995 91.342,202.169 91.067,202.164 94.614 C 202.160 98.312,203.475 97.999,187.917 97.999 C 172.320 97.999,173.673 98.332,173.670 94.500 C 173.669 92.019,173.226 92.805,177.638 87.449 C 181.573 82.672,181.055 82.998,184.639 83.048 L 187.195 83.084 187.681 83.628 M362.576 85.258 C 363.202 85.555,363.424 85.924,363.673 87.083 C 364.110 89.120,365.396 90.297,368.008 91.055 C 369.530 91.496,369.737 91.843,369.808 94.058 C 369.916 97.459,369.443 98.085,367.070 97.686 C 361.517 96.753,357.857 93.425,356.841 88.387 C 356.422 86.311,356.719 85.409,357.917 85.119 C 358.782 84.910,362.048 85.007,362.576 85.258 " stroke="none" fill="#ffffff" fill-rule="evenodd"></path></g></svg>