<svg id="svg" version="1.1" width="400" height="190.16697588126158" viewBox="0 0 400 190.16697588126158" xmlns="http://www.w3.org/2000/svg" xmlns:xlink="http://www.w3.org/1999/xlink" ><g id="svgg"><path id="path0" d="M0.000 95.083 L 0.000 190.167 200.000 190.167 L 400.000 190.167 400.000 95.083 L 400.000 0.000 200.000 0.000 L 0.000 0.000 0.000 95.083 M206.267 49.417 C 209.844 51.297,209.613 60.543,205.860 65.656 C 204.713 67.218,201.627 68.414,199.394 68.161 C 197.945 67.998,197.916 68.183,200.000 64.352 C 203.260 58.357,205.078 54.069,204.972 52.621 L 204.917 51.855 203.518 51.897 C 196.091 52.116,185.591 58.361,177.283 67.500 C 174.078 71.025,169.017 77.723,169.017 78.439 C 169.017 78.515,171.610 78.058,174.780 77.424 C 184.655 75.448,193.981 73.987,201.763 73.197 C 207.113 72.654,217.745 71.816,220.872 71.690 L 224.026 71.564 223.637 72.006 C 220.449 75.633,217.333 80.553,216.777 82.839 L 216.642 83.395 217.070 83.024 C 217.470 82.677,217.464 82.713,216.974 83.581 C 216.283 84.806,216.059 85.028,216.222 84.323 C 216.326 83.877,215.457 84.654,211.840 88.244 C 182.863 117.005,160.817 128.269,151.455 119.096 C 147.518 115.239,147.607 106.508,151.680 96.939 C 151.867 96.499,151.795 96.561,145.342 102.395 C 141.010 106.312,140.468 106.868,139.821 108.054 C 131.694 122.964,123.814 130.555,115.710 131.278 L 114.258 131.408 114.411 132.355 C 114.663 133.914,114.575 136.200,114.238 136.841 C 113.616 138.026,113.502 138.012,111.924 136.552 C 98.911 124.510,73.546 125.334,39.840 138.893 C 34.414 141.076,34.363 141.086,33.391 140.114 C 32.080 138.803,31.825 136.076,32.823 134.048 C 35.781 128.039,59.941 108.581,81.447 94.886 C 86.322 91.782,98.715 84.380,98.842 84.497 C 98.868 84.522,98.436 85.786,97.882 87.307 C 97.328 88.828,96.908 90.106,96.949 90.146 C 96.990 90.187,98.924 89.134,101.248 87.805 C 105.416 85.423,106.576 84.787,106.749 84.787 C 106.797 84.787,106.423 85.809,105.916 87.059 C 101.778 97.272,100.574 107.490,102.891 112.755 C 103.493 114.124,103.639 113.985,103.765 111.920 C 104.695 96.681,111.591 85.337,121.452 82.826 C 124.890 81.951,127.843 82.218,125.470 83.190 C 120.226 85.337,116.312 90.278,113.725 98.017 C 111.877 103.545,109.833 112.895,109.833 115.824 L 109.833 116.459 111.268 116.567 C 118.156 117.088,125.820 114.054,135.188 107.096 L 137.074 105.695 137.951 103.451 C 139.202 100.248,141.170 94.726,141.089 94.645 C 140.911 94.467,133.343 98.711,128.822 101.525 L 126.569 102.928 126.283 102.252 C 123.770 96.303,126.412 93.593,139.889 88.296 C 144.065 86.655,143.632 87.071,144.408 83.952 C 148.864 66.026,145.807 57.722,134.787 57.814 C 128.079 57.870,121.137 62.326,115.036 70.493 L 113.309 72.804 114.653 73.214 C 116.762 73.858,117.626 74.915,117.624 76.849 C 117.622 78.866,117.526 78.990,114.968 80.295 C 113.709 80.936,111.448 82.133,109.942 82.954 C 108.436 83.775,107.161 84.402,107.107 84.349 C 107.054 84.296,107.636 82.995,108.400 81.458 C 109.164 79.921,109.744 78.664,109.688 78.664 C 109.528 78.664,104.040 81.554,101.511 82.970 C 100.250 83.675,99.195 84.227,99.166 84.195 C 99.094 84.117,100.898 80.465,101.556 79.356 L 102.081 78.471 100.994 78.586 C 76.263 81.206,50.177 89.817,45.608 96.868 C 44.872 98.003,44.853 97.974,45.202 96.283 C 46.215 91.373,48.882 87.707,53.540 84.822 C 63.638 78.569,85.900 72.946,102.673 72.413 C 106.801 72.282,106.582 72.181,105.376 73.655 C 104.490 74.737,102.144 78.273,102.245 78.374 C 102.288 78.417,103.241 78.380,104.362 78.292 C 108.530 77.965,110.019 77.951,110.019 78.237 C 110.019 78.382,110.103 78.448,110.207 78.384 C 110.311 78.320,110.348 78.190,110.289 78.096 C 110.231 78.001,110.859 76.825,111.685 75.481 C 112.511 74.138,113.120 72.972,113.038 72.890 C 112.826 72.677,109.827 72.360,108.018 72.358 C 106.103 72.356,106.035 72.520,109.405 69.016 C 121.397 56.546,133.577 52.361,143.182 57.410 C 150.442 61.226,152.965 71.140,149.926 83.905 C 149.835 84.288,149.815 84.599,149.880 84.597 C 149.946 84.594,152.225 83.864,154.945 82.973 L 159.890 81.354 161.546 78.850 C 171.394 63.953,184.163 52.970,195.094 49.992 C 198.859 48.967,204.826 48.659,206.267 49.417 M304.360 55.583 C 315.781 57.429,320.204 67.151,316.876 83.100 C 316.676 84.060,316.512 84.884,316.512 84.932 C 316.512 84.979,317.284 84.316,318.228 83.459 C 325.432 76.914,332.487 72.433,341.558 68.639 C 356.398 62.433,366.218 63.725,368.382 72.170 C 369.531 76.657,364.621 84.337,357.678 88.909 C 352.312 92.443,349.850 92.728,347.530 90.085 C 346.008 88.352,345.836 88.533,352.901 84.454 C 359.795 80.474,364.805 75.283,365.410 71.493 C 365.557 70.577,365.223 70.272,363.602 69.840 C 354.776 67.491,330.756 79.289,319.819 91.346 C 317.620 93.771,317.406 94.062,318.460 93.196 C 319.849 92.055,321.088 90.852,321.196 90.538 C 321.363 90.052,321.908 90.763,322.023 91.616 C 322.212 93.026,321.157 94.232,314.163 100.603 C 310.835 103.634,309.842 105.177,310.679 106.014 C 312.389 107.725,316.193 107.258,326.160 104.115 C 342.755 98.883,348.819 98.030,352.552 100.406 L 353.434 100.967 358.181 98.243 C 360.792 96.745,362.962 95.553,363.003 95.594 C 363.164 95.755,362.288 97.959,361.817 98.580 C 361.191 99.404,358.827 101.370,356.818 102.736 C 355.179 103.851,355.143 103.920,355.478 105.288 C 358.606 118.043,338.847 140.359,327.378 137.025 C 324.403 136.160,321.336 132.334,321.336 129.488 C 321.336 124.521,335.306 111.222,347.892 104.208 C 348.768 103.720,348.314 103.531,346.253 103.528 C 344.254 103.525,342.898 103.899,339.080 105.510 C 325.280 111.333,315.834 113.912,312.697 112.714 C 311.610 112.299,309.723 110.429,308.321 108.379 L 307.272 106.845 306.482 108.293 C 301.710 117.031,296.004 124.366,291.285 127.827 C 284.413 132.868,275.062 132.500,272.258 127.077 L 271.935 126.452 272.560 125.981 C 272.904 125.722,273.876 124.900,274.721 124.155 C 275.676 123.312,276.285 122.891,276.332 123.042 C 276.373 123.175,276.459 123.656,276.523 124.111 C 277.419 130.462,284.073 129.452,291.753 121.800 C 294.344 119.218,299.867 112.430,299.377 112.430 C 299.323 112.430,298.418 112.884,297.366 113.439 C 291.788 116.381,286.076 117.970,279.612 118.377 C 275.944 118.609,276.252 118.438,276.252 120.238 L 276.252 121.716 276.826 121.420 C 277.610 121.014,277.622 121.119,276.887 121.985 C 276.329 122.643,276.258 122.680,276.255 122.310 C 276.252 121.795,276.356 121.786,274.834 122.431 C 274.134 122.728,272.954 123.154,272.211 123.379 C 270.705 123.834,270.737 123.750,271.448 125.395 C 272.004 126.678,272.172 126.460,269.388 128.075 C 256.699 135.435,244.620 128.165,234.304 106.957 L 232.499 103.247 232.096 104.174 C 227.520 114.696,223.748 127.240,223.748 131.933 L 223.748 133.395 223.135 133.395 C 220.606 133.395,218.213 130.200,218.425 127.107 C 219.027 118.343,232.845 84.104,237.875 78.915 C 239.187 77.561,241.810 77.013,244.819 77.465 C 245.814 77.614,246.656 77.737,246.691 77.737 C 247.013 77.737,246.563 78.114,245.709 78.560 C 242.306 80.338,239.129 85.990,233.875 99.610 C 233.082 101.667,232.971 101.441,234.896 101.685 C 243.609 102.792,254.636 98.183,262.384 90.196 C 263.379 89.171,264.193 88.398,264.193 88.478 C 264.193 88.559,264.038 89.076,263.849 89.628 C 263.035 91.997,261.843 98.221,261.999 99.283 C 262.181 100.519,268.974 92.839,271.804 88.196 C 272.414 87.196,272.913 86.426,272.913 86.484 C 272.913 86.543,272.662 87.198,272.356 87.941 C 270.181 93.215,268.460 101.197,268.460 106.009 C 268.460 110.628,270.325 116.007,270.552 112.043 C 271.525 95.082,280.329 82.574,291.462 82.337 C 292.999 82.304,293.938 82.588,293.119 82.838 C 288.844 84.144,284.320 88.740,282.008 94.127 C 279.557 99.839,276.634 111.654,276.625 115.882 L 276.623 116.459 278.058 116.567 C 284.963 117.089,292.962 113.901,302.172 106.955 C 304.091 105.508,303.799 105.951,305.110 102.498 C 315.816 74.308,315.897 60.979,305.380 58.120 C 295.819 55.521,284.059 64.194,276.067 79.738 C 275.140 81.541,275.018 81.588,275.513 79.953 C 276.188 77.727,276.294 76.183,275.900 74.304 C 275.521 72.497,274.909 70.774,274.651 70.788 C 274.464 70.798,272.065 73.690,271.118 75.046 C 270.533 75.885,270.481 75.921,270.575 75.417 C 271.753 69.135,270.908 67.308,265.770 65.036 C 256.531 60.950,245.488 63.303,232.606 72.101 L 230.612 73.463 230.658 72.871 C 230.731 71.953,230.114 71.752,226.836 71.627 L 224.080 71.521 226.001 69.656 C 238.185 57.827,254.904 53.725,265.378 59.995 C 269.051 62.194,273.112 66.627,274.365 69.806 L 274.640 70.503 277.348 67.854 C 284.152 61.199,291.372 56.805,297.495 55.592 C 300.098 55.076,301.217 55.075,304.360 55.583 M229.958 74.713 C 229.675 75.203,228.176 77.648,226.626 80.148 C 217.133 95.458,211.146 108.112,201.825 132.560 L 201.188 134.230 200.334 134.220 C 198.418 134.196,196.289 131.129,196.289 128.394 C 196.289 122.990,202.757 108.401,213.400 89.796 L 215.788 85.622 215.640 86.735 C 215.227 89.835,215.579 93.065,216.566 95.238 L 216.976 96.141 216.998 93.664 C 217.054 87.298,220.830 81.168,228.420 75.121 C 230.490 73.472,230.708 73.414,229.958 74.713 M217.996 75.262 C 217.639 75.297,215.719 75.453,213.729 75.609 C 195.632 77.030,182.563 79.373,168.461 83.722 L 164.658 84.895 163.685 86.557 C 156.300 99.164,152.424 111.853,154.516 116.581 C 158.282 125.095,173.862 117.333,201.408 93.216 C 206.522 88.739,218.648 77.503,220.394 75.623 L 220.844 75.139 219.745 75.169 C 219.140 75.185,218.353 75.227,217.996 75.262 M269.964 77.899 C 269.385 79.806,268.374 82.074,267.308 83.859 C 266.237 85.651,264.721 87.788,264.603 87.671 C 264.268 87.335,267.450 80.698,269.436 77.592 C 270.353 76.157,270.472 76.227,269.964 77.899 M152.134 89.869 C 147.330 91.710,147.786 91.425,147.306 92.885 C 146.929 94.030,146.665 94.729,145.422 97.861 C 145.080 98.725,145.078 98.765,145.395 98.500 C 145.581 98.345,146.234 97.801,146.846 97.293 C 150.709 94.085,154.176 91.010,154.272 90.707 C 154.334 90.512,154.488 90.353,154.614 90.353 C 154.740 90.353,155.025 89.977,155.248 89.518 C 155.763 88.457,155.842 88.448,152.134 89.869 M91.837 93.287 C 77.568 101.888,65.546 110.276,50.742 121.960 C 47.091 124.842,40.721 130.130,40.532 130.437 C 40.370 130.698,40.391 130.692,43.164 129.611 C 55.609 124.762,69.315 120.986,79.870 119.497 C 87.789 118.380,96.985 118.985,102.295 120.972 C 102.884 121.192,103.402 121.335,103.448 121.290 C 103.671 121.067,103.273 116.883,103.028 116.883 C 101.504 116.883,97.595 113.527,96.510 111.288 C 94.677 107.503,94.479 100.329,96.023 93.595 C 96.712 90.588,96.721 90.538,96.545 90.542 C 96.455 90.545,94.337 91.780,91.837 93.287 M260.443 100.757 C 256.193 103.678,248.810 106.568,242.440 107.803 C 239.941 108.287,240.027 108.163,241.018 109.860 C 247.317 120.646,258.680 126.335,269.481 124.110 C 270.911 123.815,270.881 123.862,270.581 122.449 C 270.441 121.786,270.269 120.262,270.200 119.063 C 270.104 117.398,270.014 116.883,269.819 116.883 C 269.022 116.883,266.797 115.448,265.393 114.029 C 262.749 111.356,261.994 109.144,261.808 103.522 L 261.688 99.901 260.443 100.757 M347.820 109.335 C 338.215 115.778,332.720 120.858,327.396 128.217 C 325.544 130.776,325.516 130.678,328.061 130.571 C 337.642 130.169,349.966 118.373,350.938 108.673 C 351.098 107.076,351.229 107.048,347.820 109.335 M130.705 113.366 C 125.433 116.248,119.290 117.969,112.822 118.377 C 111.143 118.483,109.690 118.620,109.591 118.680 C 109.367 118.819,109.544 123.790,109.803 124.623 L 109.989 125.220 108.566 124.227 C 106.447 122.748,103.711 121.415,103.711 121.861 C 103.711 126.700,108.312 131.338,113.126 131.352 C 114.291 131.355,114.281 131.429,113.368 129.612 L 112.636 128.154 113.372 128.253 C 117.723 128.837,125.332 122.820,131.799 113.683 C 132.850 112.199,132.844 112.197,130.705 113.366 M112.088 127.505 C 112.582 128.189,112.227 128.151,111.407 127.431 C 110.803 126.901,110.204 126.022,110.204 125.667 C 110.204 125.479,111.628 126.868,112.088 127.505 " stroke="none" fill="#1464ec" fill-rule="evenodd"></path><path id="path1" d="M198.545 49.261 C 186.437 51.101,172.549 62.207,161.546 78.850 L 159.890 81.354 154.945 82.973 C 152.225 83.864,149.946 84.594,149.880 84.597 C 149.815 84.599,149.835 84.288,149.926 83.905 C 152.965 71.140,150.442 61.226,143.182 57.410 C 133.577 52.361,121.397 56.546,109.405 69.016 C 106.035 72.520,106.103 72.356,108.018 72.358 C 109.827 72.360,112.826 72.677,113.038 72.890 C 113.120 72.972,112.511 74.138,111.685 75.481 C 110.859 76.825,110.231 78.001,110.289 78.096 C 110.348 78.190,110.311 78.320,110.207 78.384 C 110.103 78.448,110.019 78.382,110.019 78.237 C 110.019 77.951,108.530 77.965,104.362 78.292 C 103.241 78.380,102.288 78.417,102.245 78.374 C 102.144 78.273,104.490 74.737,105.376 73.655 C 106.582 72.181,106.801 72.282,102.673 72.413 C 85.900 72.946,63.638 78.569,53.540 84.822 C 48.882 87.707,46.215 91.373,45.202 96.283 C 44.853 97.974,44.872 98.003,45.608 96.868 C 50.177 89.817,76.263 81.206,100.994 78.586 L 102.081 78.471 101.556 79.356 C 100.898 80.465,99.094 84.117,99.166 84.195 C 99.195 84.227,100.250 83.675,101.511 82.970 C 104.040 81.554,109.528 78.664,109.688 78.664 C 109.744 78.664,109.164 79.921,108.400 81.458 C 107.636 82.995,107.054 84.296,107.107 84.349 C 107.161 84.402,108.436 83.775,109.942 82.954 C 111.448 82.133,113.709 80.936,114.968 80.295 C 117.526 78.990,117.622 78.866,117.624 76.849 C 117.626 74.915,116.762 73.858,114.653 73.214 L 113.309 72.804 115.036 70.493 C 121.137 62.326,128.079 57.870,134.787 57.814 C 145.807 57.722,148.864 66.026,144.408 83.952 C 143.632 87.071,144.065 86.655,139.889 88.296 C 126.412 93.593,123.770 96.303,126.283 102.252 L 126.569 102.928 128.822 101.525 C 133.343 98.711,140.911 94.467,141.089 94.645 C 141.170 94.726,139.202 100.248,137.951 103.451 L 137.074 105.695 135.188 107.096 C 125.820 114.054,118.156 117.088,111.268 116.567 L 109.833 116.459 109.833 115.824 C 109.833 112.895,111.877 103.545,113.725 98.017 C 116.312 90.278,120.226 85.337,125.470 83.190 C 127.843 82.218,124.890 81.951,121.452 82.826 C 111.591 85.337,104.695 96.681,103.765 111.920 C 103.639 113.985,103.493 114.124,102.891 112.755 C 100.574 107.490,101.778 97.272,105.916 87.059 C 106.423 85.809,106.797 84.787,106.749 84.787 C 106.576 84.787,105.416 85.423,101.248 87.805 C 98.924 89.134,96.990 90.187,96.949 90.146 C 96.908 90.106,97.328 88.828,97.882 87.307 C 98.436 85.786,98.868 84.522,98.842 84.497 C 98.715 84.380,86.322 91.782,81.447 94.886 C 59.941 108.581,35.781 128.039,32.823 134.048 C 31.825 136.076,32.080 138.803,33.391 140.114 C 34.363 141.086,34.414 141.076,39.840 138.893 C 73.546 125.334,98.911 124.510,111.924 136.552 C 113.502 138.012,113.616 138.026,114.238 136.841 C 114.575 136.200,114.663 133.914,114.411 132.355 L 114.258 131.408 115.710 131.278 C 123.814 130.555,131.694 122.964,139.821 108.054 C 140.468 106.868,141.010 106.312,145.342 102.395 C 151.795 96.561,151.867 96.499,151.680 96.939 C 147.607 106.508,147.518 115.239,151.455 119.096 C 160.817 128.269,182.863 117.005,211.840 88.244 C 215.457 84.654,216.326 83.877,216.222 84.323 C 216.059 85.028,216.283 84.806,216.974 83.581 C 217.464 82.713,217.470 82.677,217.070 83.024 L 216.642 83.395 216.777 82.839 C 217.333 80.553,220.449 75.633,223.637 72.006 L 224.026 71.564 220.872 71.690 C 217.745 71.816,207.113 72.654,201.763 73.197 C 193.981 73.987,184.655 75.448,174.780 77.424 C 171.610 78.058,169.017 78.515,169.017 78.439 C 169.017 77.723,174.078 71.025,177.283 67.500 C 185.591 58.361,196.091 52.116,203.518 51.897 L 204.917 51.855 204.972 52.621 C 205.078 54.069,203.260 58.357,200.000 64.352 C 198.981 66.225,198.187 67.821,198.235 67.899 C 198.659 68.585,202.435 68.048,204.291 67.038 C 208.321 64.845,210.386 53.655,207.380 50.300 C 206.243 49.032,202.755 48.621,198.545 49.261 M299.814 55.229 C 293.165 55.779,285.006 60.364,277.348 67.854 L 274.640 70.503 274.365 69.806 C 273.112 66.627,269.051 62.194,265.378 59.995 C 254.904 53.725,238.185 57.827,226.001 69.656 L 224.080 71.521 226.836 71.627 C 230.114 71.752,230.731 71.953,230.658 72.871 L 230.612 73.463 232.606 72.101 C 245.488 63.303,256.531 60.950,265.770 65.036 C 270.908 67.308,271.753 69.135,270.575 75.417 C 270.481 75.921,270.533 75.885,271.118 75.046 C 272.065 73.690,274.464 70.798,274.651 70.788 C 274.909 70.774,275.521 72.497,275.900 74.304 C 276.294 76.183,276.188 77.727,275.513 79.953 C 275.018 81.588,275.140 81.541,276.067 79.738 C 284.059 64.194,295.819 55.521,305.380 58.120 C 315.897 60.979,315.816 74.308,305.110 102.498 C 303.799 105.951,304.091 105.508,302.172 106.955 C 292.962 113.901,284.963 117.089,278.058 116.567 L 276.623 116.459 276.625 115.882 C 276.634 111.654,279.557 99.839,282.008 94.127 C 284.320 88.740,288.844 84.144,293.119 82.838 C 293.938 82.588,292.999 82.304,291.462 82.337 C 280.329 82.574,271.525 95.082,270.552 112.043 C 270.325 116.007,268.460 110.628,268.460 106.009 C 268.460 101.197,270.181 93.215,272.356 87.941 C 272.662 87.198,272.913 86.543,272.913 86.484 C 272.913 86.426,272.414 87.196,271.804 88.196 C 268.974 92.839,262.181 100.519,261.999 99.283 C 261.843 98.221,263.035 91.997,263.849 89.628 C 264.038 89.076,264.193 88.559,264.193 88.478 C 264.193 88.398,263.379 89.171,262.384 90.196 C 254.636 98.183,243.609 102.792,234.896 101.685 C 232.971 101.441,233.082 101.667,233.875 99.610 C 239.129 85.990,242.306 80.338,245.709 78.560 C 246.563 78.114,247.013 77.737,246.691 77.737 C 246.656 77.737,245.814 77.614,244.819 77.465 C 241.810 77.013,239.187 77.561,237.875 78.915 C 232.845 84.104,219.027 118.343,218.425 127.107 C 218.213 130.200,220.606 133.395,223.135 133.395 L 223.748 133.395 223.748 131.933 C 223.748 127.240,227.520 114.696,232.096 104.174 L 232.499 103.247 234.304 106.957 C 244.620 128.165,256.699 135.435,269.388 128.075 C 272.172 126.460,272.004 126.678,271.448 125.395 C 270.737 123.750,270.705 123.834,272.211 123.379 C 272.954 123.154,274.134 122.728,274.834 122.431 C 276.356 121.786,276.252 121.795,276.255 122.310 C 276.258 122.680,276.329 122.643,276.887 121.985 C 277.622 121.119,277.610 121.014,276.826 121.420 L 276.252 121.716 276.252 120.238 C 276.252 118.438,275.944 118.609,279.612 118.377 C 286.076 117.970,291.788 116.381,297.366 113.439 C 298.418 112.884,299.323 112.430,299.377 112.430 C 299.867 112.430,294.344 119.218,291.753 121.800 C 284.073 129.452,277.419 130.462,276.523 124.111 C 276.459 123.656,276.373 123.175,276.332 123.042 C 276.285 122.891,275.676 123.312,274.721 124.155 C 273.876 124.900,272.904 125.722,272.560 125.981 L 271.935 126.452 272.258 127.077 C 275.062 132.500,284.413 132.868,291.285 127.827 C 296.004 124.366,301.710 117.031,306.482 108.293 L 307.272 106.845 308.321 108.379 C 309.723 110.429,311.610 112.299,312.697 112.714 C 315.834 113.912,325.280 111.333,339.080 105.510 C 342.898 103.899,344.254 103.525,346.253 103.528 C 348.314 103.531,348.768 103.720,347.892 104.208 C 335.306 111.222,321.336 124.521,321.336 129.488 C 321.336 132.334,324.403 136.160,327.378 137.025 C 338.847 140.359,358.606 118.043,355.478 105.288 C 355.143 103.920,355.179 103.851,356.818 102.736 C 358.827 101.370,361.191 99.404,361.817 98.580 C 362.288 97.959,363.164 95.755,363.003 95.594 C 362.962 95.553,360.792 96.745,358.181 98.243 L 353.434 100.967 352.552 100.406 C 348.819 98.030,342.755 98.883,326.160 104.115 C 316.193 107.258,312.389 107.725,310.679 106.014 C 309.842 105.177,310.835 103.634,314.163 100.603 C 321.157 94.232,322.212 93.026,322.023 91.616 C 321.908 90.763,321.363 90.052,321.196 90.538 C 321.088 90.852,319.849 92.055,318.460 93.196 C 317.406 94.062,317.620 93.771,319.819 91.346 C 330.756 79.289,354.776 67.491,363.602 69.840 C 365.223 70.272,365.557 70.577,365.410 71.493 C 364.805 75.283,359.795 80.474,352.901 84.454 C 345.836 88.533,346.008 88.352,347.530 90.085 C 349.850 92.728,352.312 92.443,357.678 88.909 C 364.621 84.337,369.531 76.657,368.382 72.170 C 366.218 63.725,356.398 62.433,341.558 68.639 C 332.487 72.433,325.432 76.914,318.228 83.459 C 317.284 84.316,316.512 84.979,316.512 84.932 C 316.512 84.884,316.676 84.060,316.876 83.100 C 320.204 67.151,315.781 57.429,304.360 55.583 C 302.285 55.248,300.896 55.139,299.814 55.229 M228.420 75.121 C 220.830 81.168,217.054 87.298,216.998 93.664 L 216.976 96.141 216.566 95.238 C 215.579 93.065,215.227 89.835,215.640 86.735 L 215.788 85.622 213.400 89.796 C 202.757 108.401,196.289 122.990,196.289 128.394 C 196.289 131.129,198.418 134.196,200.334 134.220 L 201.188 134.230 201.825 132.560 C 211.146 108.112,217.133 95.458,226.626 80.148 C 231.216 72.746,231.142 72.952,228.420 75.121 M220.394 75.623 C 218.648 77.503,206.522 88.739,201.408 93.216 C 173.862 117.333,158.282 125.095,154.516 116.581 C 152.424 111.853,156.300 99.164,163.685 86.557 L 164.658 84.895 168.461 83.722 C 182.563 79.373,195.632 77.030,213.729 75.609 C 215.719 75.453,217.639 75.297,217.996 75.262 C 218.353 75.227,219.140 75.185,219.745 75.169 L 220.844 75.139 220.394 75.623 M269.436 77.592 C 267.450 80.698,264.268 87.335,264.603 87.671 C 264.874 87.941,267.941 83.005,268.910 80.738 C 269.643 79.026,270.406 76.652,270.269 76.515 C 270.220 76.467,269.845 76.951,269.436 77.592 M155.248 89.518 C 155.025 89.977,154.740 90.353,154.614 90.353 C 154.488 90.353,154.334 90.512,154.272 90.707 C 154.176 91.010,150.709 94.085,146.846 97.293 C 146.234 97.801,145.581 98.345,145.395 98.500 C 145.078 98.765,145.080 98.725,145.422 97.861 C 146.665 94.729,146.929 94.030,147.306 92.885 C 147.786 91.425,147.330 91.710,152.134 89.869 C 155.842 88.448,155.763 88.457,155.248 89.518 M96.598 91.048 C 96.539 91.329,96.280 92.475,96.023 93.595 C 94.479 100.329,94.677 107.503,96.510 111.288 C 97.595 113.527,101.504 116.883,103.028 116.883 C 103.273 116.883,103.671 121.067,103.448 121.290 C 103.402 121.335,102.884 121.192,102.295 120.972 C 96.985 118.985,87.789 118.380,79.870 119.497 C 69.315 120.986,55.609 124.762,43.164 129.611 C 40.391 130.692,40.370 130.698,40.532 130.437 C 40.721 130.130,47.091 124.842,50.742 121.960 C 65.546 110.276,77.568 101.888,91.837 93.287 C 96.813 90.287,96.754 90.315,96.598 91.048 M262.305 108.556 C 263.329 112.401,267.374 116.883,269.819 116.883 C 270.014 116.883,270.104 117.398,270.200 119.063 C 270.269 120.262,270.441 121.786,270.581 122.449 C 270.881 123.862,270.911 123.815,269.481 124.110 C 258.680 126.335,247.317 120.646,241.018 109.860 C 240.027 108.163,239.941 108.287,242.440 107.803 C 248.810 106.568,256.193 103.678,260.443 100.757 L 261.688 99.901 261.808 103.522 C 261.899 106.275,262.018 107.482,262.305 108.556 M350.938 108.673 C 349.966 118.373,337.642 130.169,328.061 130.571 C 325.516 130.678,325.544 130.776,327.396 128.217 C 332.720 120.858,338.215 115.778,347.820 109.335 C 351.229 107.048,351.098 107.076,350.938 108.673 M131.799 113.683 C 125.332 122.820,117.723 128.837,113.372 128.253 L 112.636 128.154 113.368 129.612 C 114.281 131.429,114.291 131.355,113.126 131.352 C 108.312 131.338,103.711 126.700,103.711 121.861 C 103.711 121.415,106.447 122.748,108.566 124.227 L 109.989 125.220 109.803 124.623 C 109.544 123.790,109.367 118.819,109.591 118.680 C 109.690 118.620,111.143 118.483,112.822 118.377 C 119.290 117.969,125.433 116.248,130.705 113.366 C 132.844 112.197,132.850 112.199,131.799 113.683 M110.204 125.667 C 110.204 126.022,110.803 126.901,111.407 127.431 C 112.843 128.691,112.475 127.726,110.962 126.261 C 110.545 125.858,110.204 125.590,110.204 125.667 " stroke="none" fill="#f9fafc" fill-rule="evenodd"></path></g></svg>